<?xml version="1.0" encoding="utf-8"?>
<!-- Generator: Adobe Illustrator 23.0.5, SVG Export Plug-In . SVG Version: 6.00 Build 0)  -->
<svg version="1.1" id="Design" xmlns="http://www.w3.org/2000/svg" xmlns:xlink="http://www.w3.org/1999/xlink" x="0px" y="0px"
	 viewBox="0 0 288 288" style="enable-background:new 0 0 288 288;" xml:space="preserve">
<style type="text/css">
	.st0{fill:url(#XMLID_2_);}
	.st1{fill:url(#XMLID_3_);}
	.st2{opacity:0.6;fill:url(#XMLID_4_);}
	.st3{fill:url(#XMLID_5_);}
	.st4{opacity:0.6;fill:url(#XMLID_6_);}
	.st5{fill:#FFFFFF;}
</style>
<g id="XMLID_2696_">
	<g id="XMLID_2762_">
		<g id="XMLID_2763_">
			<radialGradient id="XMLID_2_" cx="108.723" cy="103.5804" r="138.5764" gradientUnits="userSpaceOnUse">
				<stop  offset="0" style="stop-color:#FFFFFF"/>
				<stop  offset="0.2347" style="stop-color:#B1B1B1"/>
				<stop  offset="0.3827" style="stop-color:#9FA1A4"/>
				<stop  offset="0.5714" style="stop-color:#E5E6E8"/>
				<stop  offset="0.7041" style="stop-color:#FFFFFF"/>
				<stop  offset="0.9235" style="stop-color:#9FA1A4"/>
			</radialGradient>
			<path id="XMLID_2764_" class="st0" d="M146.3,201.1c-24.9-0.1-47.5-12.6-60.6-33.6l-0.3-0.5c-11.6-21.9-11.2-47.8,1.1-69.3l0,0
				C99,76.2,121.2,62.8,146,62l0.3,0l0.3,0c24.7,0.9,47,14.2,59.4,35.6c12.4,21.6,12.8,47.5,1.2,69.3l-0.3,0.5
				C193.8,188.4,171.1,201,146.3,201.1z M100.3,158.7c10,15.9,27.2,25.4,46,25.4c18.8-0.1,36-9.5,46-25.4c8.7-16.6,8.4-36.2-1-52.6
				c-9.4-16.2-26.3-26.4-45-27.1c-18.7,0.7-35.6,10.9-45,27.2C91.9,122.5,91.5,142.1,100.3,158.7z"/>
		</g>
		<radialGradient id="XMLID_3_" cx="146.794" cy="131.9122" r="69.5072" gradientUnits="userSpaceOnUse">
			<stop  offset="0" style="stop-color:#15FFFF"/>
			<stop  offset="0.3416" style="stop-color:#0DBCE9"/>
			<stop  offset="0.7935" style="stop-color:#0468CE"/>
			<stop  offset="1" style="stop-color:#0047C3"/>
		</radialGradient>
		<path id="XMLID_2767_" class="st1" d="M146.3,190c-20.9-0.1-39.9-10.6-50.9-28.3l-0.2-0.4c-9.8-18.4-9.4-40.1,1-58.2l0,0
			c10.5-18,29.1-29.2,49.9-29.9l0.2,0l0.2,0C167.3,73.8,186,85,196.5,103c10.4,18.1,10.8,39.9,1,58.2l-0.2,0.4
			C186.2,179.4,167.1,189.9,146.3,190z"/>
		<radialGradient id="XMLID_4_" cx="146.2794" cy="131.5374" r="44.0635" gradientUnits="userSpaceOnUse">
			<stop  offset="0" style="stop-color:#006C6C"/>
			<stop  offset="0.632" style="stop-color:#002B57"/>
			<stop  offset="1" style="stop-color:#000A4C"/>
		</radialGradient>
		<path id="XMLID_2768_" class="st2" d="M107.6,154.4c8.4,13.3,22.9,21.3,38.7,21.4c15.8,0,30.2-8,38.7-21.4c7.3-14,7-30.5-0.9-44.2
			C176.2,96.5,162,88,146.3,87.4c-15.8,0.6-29.9,9.1-37.8,22.8C100.6,123.9,100.3,140.4,107.6,154.4z"/>
		<radialGradient id="XMLID_5_" cx="146.5564" cy="131.7374" r="37.4799" gradientUnits="userSpaceOnUse">
			<stop  offset="0" style="stop-color:#006C6C"/>
			<stop  offset="0.632" style="stop-color:#002B57"/>
			<stop  offset="1" style="stop-color:#000A4C"/>
		</radialGradient>
		<path id="XMLID_2769_" class="st3" d="M146.3,163c-11.3,0-21.5-5.7-27.5-15.2l-0.1-0.2c-5.3-9.9-5.1-21.6,0.5-31.4l0,0
			c5.6-9.7,15.7-15.8,26.9-16.1l0.1,0l0.1,0c11.2,0.4,21.3,6.4,26.9,16.1c5.6,9.8,5.8,21.5,0.5,31.4l-0.1,0.2
			C167.8,157.3,157.5,163,146.3,163z"/>
		<radialGradient id="XMLID_6_" cx="168.3957" cy="159.0117" r="37.7767" gradientUnits="userSpaceOnUse">
			<stop  offset="0" style="stop-color:#006C6C"/>
			<stop  offset="0.632" style="stop-color:#002B57"/>
			<stop  offset="1" style="stop-color:#000A4C"/>
		</radialGradient>
		<path id="XMLID_2770_" class="st4" d="M146.3,150.2c-6.7,0-12.8-3.4-16.3-9l-0.1-0.1c-3.1-5.9-3-12.8,0.3-18.6l0,0
			c3.3-5.8,9.3-9.3,16-9.6l0.1,0l0.1,0c6.6,0.2,12.6,3.8,16,9.6c3.3,5.8,3.4,12.7,0.3,18.6l-0.1,0.1
			C159,146.8,152.9,150.2,146.3,150.2z"/>
		<path id="XMLID_2771_" class="st5" d="M134.3,127.8c-2.7,0-5.1-1.4-6.5-3.6l0-0.1c-1.3-2.4-1.2-5.1,0.1-7.5l0,0
			c1.3-2.3,3.7-3.7,6.4-3.8l0,0l0,0c2.7,0.1,5.1,1.5,6.4,3.8c1.3,2.3,1.4,5.1,0.1,7.5l0,0.1C139.4,126.5,137,127.8,134.3,127.8z"/>
	</g>
</g>
</svg>
